<svg width="800" height="800" viewBox="0 0 800 800" fill="none" xmlns="http://www.w3.org/2000/svg">
<path d="M400 183.333C398.011 161.232 404.883 139.246 419.105 122.211C433.326 105.177 453.732 94.4891 475.833 92.5C497.935 90.5109 519.921 97.383 536.956 111.604C553.99 125.826 564.678 146.232 566.667 168.333C585.548 172.058 602.538 182.253 614.707 197.161C626.877 212.069 633.464 230.756 633.333 250C633.388 262.378 630.534 274.595 625 285.667C637.863 294.904 648.348 307.065 655.592 321.147C662.836 335.229 666.631 350.831 666.667 366.667C666.52 391.335 657.26 415.079 640.667 433.333C653.506 447.688 661.928 465.445 664.919 484.47C667.91 503.495 665.344 522.979 657.529 540.581C649.713 558.183 636.982 573.154 620.863 583.695C604.745 594.235 585.925 599.897 566.667 600C567.716 605.607 568.274 611.296 568.333 617C568.333 639.101 559.554 660.298 543.926 675.926C528.298 691.554 507.102 700.333 485 700.333C462.899 700.333 441.703 691.554 426.075 675.926C410.447 660.298 401.667 639.101 401.667 617L400 183.333Z" stroke="#28C6CF" stroke-width="66.6667" stroke-linecap="round" stroke-linejoin="round"/>
<path d="M400 183.333C399.627 162.803 391.687 143.133 377.702 128.097C363.718 113.06 344.675 103.716 324.225 101.857C303.776 99.9983 283.359 105.755 266.893 118.023C250.427 130.291 239.07 148.207 235 168.333C215.813 171.711 198.435 181.757 185.933 196.699C173.431 211.641 166.607 230.518 166.667 250C166.612 262.378 169.467 274.595 175 285.667C162.137 294.904 151.653 307.065 144.409 321.147C137.165 335.229 133.369 350.831 133.333 366.667C133.481 391.335 142.741 415.079 159.334 433.333C146.494 447.688 138.073 465.445 135.081 484.47C132.09 503.495 134.656 522.979 142.472 540.581C150.287 558.183 163.019 573.154 179.137 583.695C195.256 594.235 214.075 599.897 233.333 600C232.841 605.656 232.841 611.344 233.333 617C233.333 639.101 242.113 660.297 257.741 675.926C273.369 691.554 294.565 700.333 316.667 700.333C338.768 700.333 359.964 691.554 375.592 675.926C391.22 660.297 400 639.101 400 617V183.333Z" stroke="#A3A3A3" stroke-width="66.6667" stroke-linecap="round" stroke-linejoin="round"/>
</svg>
