<svg width="19" height="22" viewBox="0 0 19 22" fill="none" xmlns="http://www.w3.org/2000/svg">
<g opacity="0.3">
<path d="M9.50005 10.5833C12.4226 10.5833 14.7917 8.21418 14.7917 5.29167C14.7917 2.36916 12.4226 0 9.50005 0C6.57754 0 4.20837 2.36916 4.20837 5.29167C4.20837 8.21418 6.57754 10.5833 9.50005 10.5833Z" fill="#08AAB3"/>
</g>
<path d="M17.7149 21.3374C17.8893 21.3473 18.0638 21.3195 18.2265 21.2559C18.3892 21.1923 18.5363 21.0944 18.6578 20.9689C18.7792 20.8434 18.8722 20.6932 18.9305 20.5285C18.9887 20.3638 19.0107 20.1885 18.9951 20.0145C18.3123 16.0031 14.3223 12.9198 9.5 12.9198C4.67775 12.9198 0.687658 16.0031 0.00486185 20.0145C-0.0107415 20.1885 0.0113167 20.3638 0.0695353 20.5285C0.127754 20.6932 0.220767 20.8434 0.342245 20.9689C0.463724 21.0944 0.610817 21.1923 0.773516 21.2559C0.936215 21.3195 1.1107 21.3473 1.28511 21.3374H17.7149Z" fill="#08AAB3"/>
</svg>
